<?xml version="1.0" standalone="no"?><?xml-stylesheet type="text/css" href="https://wps.processon.com/themes/default/wps/mind/icons/icons.css" ?><!DOCTYPE svg PUBLIC "-//W3C//DTD SVG 1.1//EN" "http://www.w3.org/Graphics/SVG/1.1/DTD/svg11.dtd"><svg id="SvgjsSvg1126" width="969.5" height="591" xmlns="http://www.w3.org/2000/svg" version="1.1" xmlns:xlink="http://www.w3.org/1999/xlink" xmlns:svgjs="http://svgjs.com/svgjs"><defs id="SvgjsDefs1127"><pattern patternUnits="userSpaceOnUse" id="pattern_mark_0" width="300" height="300"><text x="150" y="100" fill="rgba(229,229,229,0.8)" font-size="18" transform="rotate(-45, 150, 150)" style="dominant-baseline: middle; text-anchor: middle;"></text></pattern><pattern patternUnits="userSpaceOnUse" id="pattern_mark_1" width="300" height="300"><text x="150" y="200" fill="rgba(229,229,229,0.8)" font-size="18" transform="rotate(-45, 150, 150)" style="dominant-baseline: middle; text-anchor: middle;"></text></pattern><pattern patternUnits="userSpaceOnUse" id="wpspattern_mark_0" width="300" height="300"><text x="150" y="100" fill="#0000004d" font-size="18" transform="rotate(-45, 150, 150)" style="dominant-baseline: middle; text-anchor: middle;"></text></pattern></defs><rect id="svgbackgroundid" width="969.5" height="591" fill="transparent"></rect><rect id="SvgjsRect1129" width="969.5" height="591" fill="url(#pattern_mark_0)"></rect><rect id="SvgjsRect1130" width="969.5" height="591" fill="url(#pattern_mark_1)"></rect><g id="SvgjsG1131" transform="translate(189,25)"><path id="SvgjsPath1132" d="M 0 0L 216 0L 216 54L 0 54Z" stroke="rgba(33,41,48,1)" stroke-width="1.5" fill-opacity="1" fill="#70d5d7"></path><g id="SvgjsG1133"><text id="SvgjsText1134" font-family="Verdana" text-anchor="middle" font-size="15px" width="196px" fill="#000000" font-weight="700" align="middle" lineHeight="125%" anchor="middle" family="Verdana" size="15px" weight="700" font-style="" opacity="1" y="14.625" transform="rotate(0)"><tspan id="SvgjsTspan1135" dy="18.75" x="108"><tspan id="SvgjsTspan1136" style="">LocalFileHeader 1</tspan></tspan></text></g></g><g id="SvgjsG1137" transform="translate(189,80)"><path id="SvgjsPath1138" d="M 0 0L 216 0L 216 54L 0 54Z" stroke="rgba(33,41,48,1)" stroke-width="1.5" fill-opacity="1" fill="#ffffff"></path><g id="SvgjsG1139"><text id="SvgjsText1140" font-family="Verdana" text-anchor="middle" font-size="15px" width="196px" fill="#323232" font-weight="700" align="middle" lineHeight="125%" anchor="middle" family="Verdana" size="15px" weight="700" font-style="" opacity="1" y="14.625" transform="rotate(0)"><tspan id="SvgjsTspan1141" dy="18.75" x="108"><tspan id="SvgjsTspan1142" style="">FileData 1</tspan></tspan></text></g></g><g id="SvgjsG1143" transform="translate(189,133)"><path id="SvgjsPath1144" d="M 0 0L 216 0L 216 54L 0 54Z" stroke="rgba(33,41,48,1)" stroke-width="1.5" fill-opacity="1" fill="#ffffff"></path><g id="SvgjsG1145"><text id="SvgjsText1146" font-family="Verdana" text-anchor="middle" font-size="15px" width="196px" fill="#323232" font-weight="700" align="middle" lineHeight="125%" anchor="middle" family="Verdana" size="15px" weight="700" font-style="" opacity="1" y="14.625" transform="rotate(0)"><tspan id="SvgjsTspan1147" dy="18.75" x="108"><tspan id="SvgjsTspan1148" style="">DataDescriptor 1</tspan></tspan></text></g></g><g id="SvgjsG1149" transform="translate(189,188)"><path id="SvgjsPath1150" d="M 0 0L 216 0L 216 54L 0 54Z" stroke="rgba(33,41,48,1)" stroke-width="1.5" fill-opacity="1" fill="#70d5d7"></path><g id="SvgjsG1151"><text id="SvgjsText1152" font-family="Verdana" text-anchor="middle" font-size="15px" width="196px" fill="#323232" font-weight="700" align="middle" lineHeight="125%" anchor="middle" family="Verdana" size="15px" weight="700" font-style="" opacity="1" y="14.625" transform="rotate(0)"><tspan id="SvgjsTspan1153" dy="18.75" x="108"><tspan id="SvgjsTspan1154" style="">LocalFileHeader 2</tspan></tspan></text></g></g><g id="SvgjsG1155" transform="translate(189,241)"><path id="SvgjsPath1156" d="M 0 0L 216 0L 216 54L 0 54Z" stroke="rgba(33,41,48,1)" stroke-width="1.5" fill-opacity="1" fill="#ffffff"></path><g id="SvgjsG1157"><text id="SvgjsText1158" font-family="Verdana" text-anchor="middle" font-size="15px" width="196px" fill="#323232" font-weight="700" align="middle" lineHeight="125%" anchor="middle" family="Verdana" size="15px" weight="700" font-style="" opacity="1" y="14.625" transform="rotate(0)"><tspan id="SvgjsTspan1159" dy="18.75" x="108"><tspan id="SvgjsTspan1160" style="">FileData 2</tspan></tspan></text></g></g><g id="SvgjsG1161" transform="translate(189,296)"><path id="SvgjsPath1162" d="M 0 0L 216 0L 216 54L 0 54Z" stroke="rgba(33,41,48,1)" stroke-width="1.5" fill-opacity="1" fill="#ffffff"></path><g id="SvgjsG1163"><text id="SvgjsText1164" font-family="Verdana" text-anchor="middle" font-size="15px" width="196px" fill="#323232" font-weight="700" align="middle" lineHeight="125%" anchor="middle" family="Verdana" size="15px" weight="700" font-style="" opacity="1" y="14.625" transform="rotate(0)"><tspan id="SvgjsTspan1165" dy="18.75" x="108"><tspan id="SvgjsTspan1166" style="">DataDescriptor 2</tspan></tspan></text></g></g><g id="SvgjsG1167" transform="translate(189,349)"><path id="SvgjsPath1168" d="M 0 0L 216 0L 216 54L 0 54Z" stroke="rgba(33,41,48,1)" stroke-width="1.5" fill-opacity="1" fill="#ffffff"></path><g id="SvgjsG1169"><text id="SvgjsText1170" font-family="Verdana" text-anchor="middle" font-size="15px" width="196px" fill="#323232" font-weight="700" align="middle" lineHeight="125%" anchor="middle" family="Verdana" size="15px" weight="700" font-style="" opacity="1" y="14.625" transform="rotate(0)"><tspan id="SvgjsTspan1171" dy="18.75" x="108"><tspan id="SvgjsTspan1172" style="">......</tspan></tspan></text></g></g><g id="SvgjsG1173" transform="translate(189,404)"><path id="SvgjsPath1174" d="M 0 0L 216 0L 216 54L 0 54Z" stroke="rgba(33,41,48,1)" stroke-width="1.5" fill-opacity="1" fill="#70d5d7"></path><g id="SvgjsG1175"><text id="SvgjsText1176" font-family="Verdana" text-anchor="middle" font-size="15px" width="196px" fill="#323232" font-weight="700" align="middle" lineHeight="125%" anchor="middle" family="Verdana" size="15px" weight="700" font-style="" opacity="1" y="14.625" transform="rotate(0)"><tspan id="SvgjsTspan1177" dy="18.75" x="108"><tspan id="SvgjsTspan1178" style="">LocalFileHeader n</tspan></tspan></text></g></g><g id="SvgjsG1179" transform="translate(189,457)"><path id="SvgjsPath1180" d="M 0 0L 216 0L 216 54L 0 54Z" stroke="rgba(33,41,48,1)" stroke-width="1.5" fill-opacity="1" fill="#ffffff"></path><g id="SvgjsG1181"><text id="SvgjsText1182" font-family="Verdana" text-anchor="middle" font-size="15px" width="196px" fill="#323232" font-weight="700" align="middle" lineHeight="125%" anchor="middle" family="Verdana" size="15px" weight="700" font-style="" opacity="1" y="14.625" transform="rotate(0)"><tspan id="SvgjsTspan1183" dy="18.75" x="108"><tspan id="SvgjsTspan1184" style="">FileData n</tspan></tspan></text></g></g><g id="SvgjsG1185" transform="translate(189,512)"><path id="SvgjsPath1186" d="M 0 0L 216 0L 216 54L 0 54Z" stroke="rgba(33,41,48,1)" stroke-width="1.5" fill-opacity="1" fill="#ffffff"></path><g id="SvgjsG1187"><text id="SvgjsText1188" font-family="Verdana" text-anchor="middle" font-size="15px" width="196px" fill="#323232" font-weight="700" align="middle" lineHeight="125%" anchor="middle" family="Verdana" size="15px" weight="700" font-style="" opacity="1" y="14.625" transform="rotate(0)"><tspan id="SvgjsTspan1189" dy="18.75" x="108"><tspan id="SvgjsTspan1190" style="">DataDescriptor n</tspan></tspan></text></g></g><g id="SvgjsG1191" transform="translate(25,50)"><path id="SvgjsPath1192" d="M 148 0Q 139 0 139 9L 139 236Q 139 245 126 245Q 139 245 139 254L 139 481Q 139 490 148 490" stroke="rgba(33,41,48,1)" stroke-width="1.5" fill="none"></path><path id="SvgjsPath1193" d="M 0 0L 148 0L 148 490L 0 490Z" stroke="none" fill="none"></path><g id="SvgjsG1194"><text id="SvgjsText1195" font-family="Tahoma" text-anchor="end" font-size="15px" width="121px" fill="#323232" font-weight="700" align="middle" lineHeight="125%" anchor="end" family="Tahoma" size="15px" weight="700" font-style="" opacity="1" y="232.625" transform="rotate(0)"><tspan id="SvgjsTspan1196" dy="18.75" x="121"><tspan id="SvgjsTspan1197" style="">源文件数据存储区</tspan></tspan></text></g></g><g id="SvgjsG1198" transform="translate(549,25)"><path id="SvgjsPath1199" d="M 0 0L 216 0L 216 108L 0 108Z" stroke="rgba(33,41,48,1)" stroke-width="1.5" fill-opacity="1" fill="#f199c8"></path><g id="SvgjsG1200"><text id="SvgjsText1201" font-family="Verdana" text-anchor="middle" font-size="15px" width="196px" fill="#000000" font-weight="700" align="middle" lineHeight="125%" anchor="middle" family="Verdana" size="15px" weight="700" font-style="" opacity="1" y="41.625" transform="rotate(0)"><tspan id="SvgjsTspan1202" dy="18.75" x="108"><tspan id="SvgjsTspan1203" style="">FileHeader 1</tspan></tspan></text></g></g><g id="SvgjsG1204" transform="translate(549,133)"><path id="SvgjsPath1205" d="M 0 0L 216 0L 216 108L 0 108Z" stroke="rgba(33,41,48,1)" stroke-width="1.5" fill-opacity="1" fill="#f199c8"></path><g id="SvgjsG1206"><text id="SvgjsText1207" font-family="Verdana" text-anchor="middle" font-size="15px" width="196px" fill="#000000" font-weight="700" align="middle" lineHeight="125%" anchor="middle" family="Verdana" size="15px" weight="700" font-style="" opacity="1" y="41.625" transform="rotate(0)"><tspan id="SvgjsTspan1208" dy="18.75" x="108"><tspan id="SvgjsTspan1209" style="">FileHeader 2</tspan></tspan></text></g></g><g id="SvgjsG1210" transform="translate(549,241)"><path id="SvgjsPath1211" d="M 0 0L 216 0L 216 108L 0 108Z" stroke="rgba(33,41,48,1)" stroke-width="1.5" fill-opacity="1" fill="#f199c8"></path><g id="SvgjsG1212"><text id="SvgjsText1213" font-family="Verdana" text-anchor="middle" font-size="15px" width="196px" fill="#000000" font-weight="700" align="middle" lineHeight="125%" anchor="middle" family="Verdana" size="15px" weight="700" font-style="" opacity="1" y="41.625" transform="rotate(0)"><tspan id="SvgjsTspan1214" dy="18.75" x="108"><tspan id="SvgjsTspan1215" style="">......</tspan></tspan></text></g></g><g id="SvgjsG1216" transform="translate(549,350)"><path id="SvgjsPath1217" d="M 0 0L 216 0L 216 108L 0 108Z" stroke="rgba(33,41,48,1)" stroke-width="1.5" fill-opacity="1" fill="#f199c8"></path><g id="SvgjsG1218"><text id="SvgjsText1219" font-family="Verdana" text-anchor="middle" font-size="15px" width="196px" fill="#000000" font-weight="700" align="middle" lineHeight="125%" anchor="middle" family="Verdana" size="15px" weight="700" font-style="" opacity="1" y="41.625" transform="rotate(0)"><tspan id="SvgjsTspan1220" dy="18.75" x="108"><tspan id="SvgjsTspan1221" style="">FileHeader n</tspan></tspan></text></g></g><g id="SvgjsG1222" transform="translate(549,457)"><path id="SvgjsPath1223" d="M 0 0L 216 0L 216 109L 0 109Z" stroke="rgba(33,41,48,1)" stroke-width="1.5" fill-opacity="1" fill="#ffffff"></path><g id="SvgjsG1224"><text id="SvgjsText1225" font-family="Verdana" text-anchor="middle" font-size="15px" width="196px" fill="#323232" font-weight="700" align="middle" lineHeight="125%" anchor="middle" family="Verdana" size="15px" weight="700" font-style="" opacity="1" y="32.625" transform="rotate(0)"><tspan id="SvgjsTspan1226" dy="18.75" x="108"><tspan id="SvgjsTspan1227" style="">End Of Central Dir </tspan></tspan><tspan id="SvgjsTspan1228" dy="18.75" x="108"><tspan id="SvgjsTspan1229" style="">Record</tspan></tspan></text></g></g><g id="SvgjsG1230" transform="translate(785,71)"><path id="SvgjsPath1231" d="M 0 346Q 9 346 9 337L 9 182Q 9 173 22 173Q 9 173 9 164L 9 9Q 9 0 0 0" stroke="rgba(33,41,48,1)" stroke-width="1.5" fill="none"></path><path id="SvgjsPath1232" d="M 0 0L 105 0L 105 346L 0 346Z" stroke="none" fill="none"></path><g id="SvgjsG1233"><text id="SvgjsText1234" font-family="Tahoma" text-anchor="end" font-size="15px" width="78px" fill="#323232" font-weight="700" align="middle" lineHeight="125%" anchor="end" family="Tahoma" size="15px" weight="700" font-style="" opacity="1" y="160.625" transform="rotate(0)"><tspan id="SvgjsTspan1235" dy="18.75" x="105"><tspan id="SvgjsTspan1236" style="">中心目录区</tspan></tspan></text></g></g><g id="SvgjsG1237" transform="translate(796.5,469)"><path id="SvgjsPath1238" d="M 0 85Q 9 85 9 76.5L 9 51Q 9 42.5 22 42.5Q 9 42.5 9 34L 9 8.5Q 9 0 0 0" stroke="rgba(33,41,48,1)" stroke-width="1.5" fill="none"></path><path id="SvgjsPath1239" d="M 0 0L 147.5 0L 147.5 85L 0 85Z" stroke="none" fill="none"></path><g id="SvgjsG1240"><text id="SvgjsText1241" font-family="Tahoma" text-anchor="end" font-size="15px" width="121px" fill="#323232" font-weight="700" align="middle" lineHeight="125%" anchor="end" family="Tahoma" size="15px" weight="700" font-style="" opacity="1" y="30.125" transform="rotate(0)"><tspan id="SvgjsTspan1242" dy="18.75" x="148"><tspan id="SvgjsTspan1243" style="">中心目录结尾标识</tspan></tspan></text></g></g><g id="SvgjsG1244"></g><rect id="SvgjsRect1245" width="969.5" height="591" fill="url(#wpspattern_mark_0)"></rect></svg>